<svg width="26" height="26" viewBox="0 0 26 26" fill="none" xmlns="http://www.w3.org/2000/svg">
<g clip-path="url(#clip0_416_185)">
<path d="M7.66829 25.5134C7.15567 25.1724 6.70135 24.751 6.32279 24.2654C5.90637 23.7642 5.52054 23.2384 5.16741 22.6908C4.33873 21.4767 3.68885 20.1499 3.23772 18.751C2.69579 17.126 2.43335 15.5684 2.43335 14.045C2.43335 12.3436 2.80141 10.8583 3.52129 9.61033C4.05492 8.63488 4.8395 7.81972 5.79385 7.24921C6.71872 6.67474 7.78142 6.36037 8.86997 6.33921C9.25104 6.33921 9.66135 6.39446 10.0968 6.50008C10.4097 6.58864 10.7907 6.72839 11.2563 6.90227C11.8486 7.13058 12.1744 7.27033 12.2849 7.30446C12.6318 7.43121 12.9235 7.48645 13.1527 7.48645C13.3265 7.48645 13.5719 7.43121 13.8506 7.34671C14.0074 7.29146 14.3032 7.19395 14.7265 7.01277C15.1457 6.86002 15.4756 6.72921 15.738 6.63171C16.1402 6.51308 16.5294 6.40339 16.8763 6.34814C17.2876 6.2833 17.705 6.26612 18.1203 6.29696C18.8398 6.34399 19.5486 6.49647 20.2238 6.74952C21.328 7.19396 22.221 7.88783 22.8856 8.87421C22.6047 9.04735 22.341 9.24705 22.0983 9.47058C21.5698 9.93905 21.1197 10.489 20.765 11.0996C20.3013 11.9341 20.0609 12.8742 20.067 13.8288C20.0841 15.0013 20.3847 16.034 20.977 16.9269C21.4125 17.5887 21.9784 18.1546 22.6402 18.5901C22.979 18.8184 23.2707 18.9752 23.5502 19.0808C23.4194 19.4871 23.2797 19.8803 23.1147 20.2703C22.7406 21.1449 22.2873 21.9834 21.7603 22.7753C21.2907 23.457 20.9226 23.9648 20.6431 24.3028C20.2076 24.8187 19.7883 25.2128 19.365 25.4874C18.8995 25.7961 18.3494 25.9611 17.7904 25.9611C17.4118 25.9756 17.0333 25.9298 16.6692 25.8254C16.3563 25.7198 16.0468 25.6052 15.7421 25.4744C15.4253 25.3289 15.0987 25.2059 14.7647 25.1063C13.9389 24.8942 13.0731 24.8928 12.2467 25.1023C11.9079 25.1998 11.5821 25.3135 11.2603 25.4533C10.8078 25.6434 10.5072 25.771 10.3333 25.8254C9.98635 25.927 9.62641 25.9903 9.26241 26.0115C8.69935 26.0115 8.17447 25.8506 7.65447 25.5248L7.66829 25.5134ZM15.0945 5.5137C14.3584 5.88177 13.6556 6.03858 12.9577 5.98739C12.848 5.28458 12.9577 4.56552 13.2493 3.77821C13.4977 3.1112 13.8646 2.4946 14.3324 1.95821C14.8264 1.39354 15.4259 0.930698 16.0972 0.595643C16.8122 0.22758 17.4938 0.0285176 18.1455 -0.000732422C18.23 0.735393 18.1455 1.45933 17.8749 2.24177C17.6245 2.93344 17.2583 3.57746 16.7918 4.14627C16.3158 4.71171 15.7315 5.17634 15.0734 5.51289L15.0945 5.5137Z" fill="black"/>
</g>
<defs>
<clipPath id="clip0_416_185">
<rect width="26" height="26" fill="white"/>
</clipPath>
</defs>
</svg>
