<svg width="40" height="40" viewBox="0 0 40 40" fill="none" xmlns="http://www.w3.org/2000/svg">
<path d="M15 28.75V30.4283C15.0001 31.0852 14.8707 31.7356 14.6194 32.3424C14.368 32.9493 13.9995 33.5006 13.535 33.965L12.5 35H27.5L26.465 33.965C26.0005 33.5006 25.632 32.9493 25.3806 32.3424C25.1293 31.7356 24.9999 31.0852 25 30.4283V28.75M35 8.75V25C35 25.9946 34.6049 26.9484 33.9016 27.6516C33.1984 28.3549 32.2446 28.75 31.25 28.75H8.75C7.75544 28.75 6.80161 28.3549 6.09835 27.6516C5.39509 26.9484 5 25.9946 5 25V8.75M35 8.75C35 7.75544 34.6049 6.80161 33.9016 6.09835C33.1984 5.39509 32.2446 5 31.25 5H8.75C7.75544 5 6.80161 5.39509 6.09835 6.09835C5.39509 6.80161 5 7.75544 5 8.75M35 8.75V20C35 20.9946 34.6049 21.9484 33.9016 22.6516C33.1984 23.3549 32.2446 23.75 31.25 23.75H8.75C7.75544 23.75 6.80161 23.3549 6.09835 22.6516C5.39509 21.9484 5 20.9946 5 20V8.75" stroke="#EA384D" stroke-width="2.5" stroke-linecap="round" stroke-linejoin="round"/>
</svg>
