<svg width="26" height="26" viewBox="0 0 26 26" fill="none" xmlns="http://www.w3.org/2000/svg">
<path d="M6.4202 15.4656L5.59745 18.537L2.59033 18.6006C1.69164 16.9338 1.18188 15.0266 1.18188 13C1.18188 11.0403 1.65849 9.1922 2.50331 7.56494H2.50395L5.18114 8.05576L6.35391 10.7169C6.10845 11.4325 5.97467 12.2007 5.97467 13C5.97476 13.8675 6.1319 14.6987 6.4202 15.4656Z" fill="#FBBB00"/>
<path d="M24.6119 10.7922C24.7476 11.5071 24.8184 12.2455 24.8184 13C24.8184 13.8461 24.7294 14.6715 24.5599 15.4676C23.9846 18.1767 22.4814 20.5422 20.3989 22.2163L20.3983 22.2156L17.0262 22.0436L16.549 19.0643C17.9308 18.2539 19.0107 16.9857 19.5795 15.4676H13.26V10.7922H19.6717H24.6119Z" fill="#518EF8"/>
<path d="M20.3981 22.2158L20.3988 22.2164C18.3735 23.8444 15.8007 24.8184 13.0001 24.8184C8.49942 24.8184 4.58645 22.3028 2.59033 18.6009L6.42021 15.4658C7.41824 18.1294 9.98773 20.0256 13.0001 20.0256C14.2949 20.0256 15.5079 19.6755 16.5488 19.0645L20.3981 22.2158Z" fill="#28B446"/>
<path d="M20.5437 3.90265L16.7151 7.03706C15.6379 6.3637 14.3644 5.97471 13.0002 5.97471C9.91965 5.97471 7.30211 7.95781 6.35407 10.7169L2.50406 7.565H2.50342C4.47031 3.77279 8.43264 1.18188 13.0002 1.18188C15.8677 1.18188 18.4969 2.20333 20.5437 3.90265Z" fill="#F14336"/>
</svg>
