<svg width="32" height="28" viewBox="0 0 32 28" fill="none" xmlns="http://www.w3.org/2000/svg">
<path d="M24.125 23.2681C24.2454 22.0111 24.4921 18.0279 27.3736 15.0039C27.4777 14.8947 21.597 16.8575 20.875 23.2681C20.1529 21.0055 23.4015 13.1187 27.012 10.4792C28.3347 9.51217 16.9025 12.3483 16.1806 22.907" stroke="#585858" stroke-width="1.5" stroke-linecap="round"/>
<path d="M20.875 23.2679C21.597 16.8574 27.4777 14.8946 27.3736 15.0038C24.4921 18.0277 24.2454 22.011 24.125 23.2679H20.875ZM20.875 23.2679C20.1529 21.0054 23.4015 13.1186 27.012 10.479C28.3347 9.51202 16.7219 12.7093 16 23.268L20.875 23.2679Z" stroke="#585858" stroke-width="1.5" stroke-linecap="round"/>
<path d="M11.125 23.2681C10.403 16.8407 4.52231 14.8728 4.62636 14.9823C7.50794 18.0142 7.75465 22.0079 7.875 23.2681L11.125 23.2681ZM11.125 23.2681C11.8471 20.9996 8.59666 12.9146 4.98611 10.2681C3.66337 9.29855 15.1404 12.6817 15.8623 23.2681L11.125 23.2681Z" stroke="#585858" stroke-width="1.5" stroke-linecap="round"/>
<path d="M14.0137 16.768C14.2544 12.4347 15.5791 5.91929 16.1803 4.85121C16.722 3.88888 17.6248 8.82353 17.9859 16.768C17.1573 18.6786 15.8561 22.3046 16 23C15.6758 21.3454 14.8246 17.7825 14.0137 16.768Z" stroke="#585858" stroke-width="1.5" stroke-linecap="round"/>
<path d="M6.06934 23.2681H26" stroke="#585858" stroke-width="1.5" stroke-linecap="round"/>
</svg>
