<svg width="41" height="40" viewBox="0 0 41 40" fill="none" xmlns="http://www.w3.org/2000/svg">
<path d="M25.5 17.5C25.5 18.8261 24.9732 20.0979 24.0355 21.0355C23.0979 21.9732 21.8261 22.5 20.5 22.5C19.1739 22.5 17.9021 21.9732 16.9645 21.0355C16.0268 20.0979 15.5 18.8261 15.5 17.5C15.5 16.1739 16.0268 14.9021 16.9645 13.9645C17.9021 13.0268 19.1739 12.5 20.5 12.5C21.8261 12.5 23.0979 13.0268 24.0355 13.9645C24.9732 14.9021 25.5 16.1739 25.5 17.5V17.5Z" stroke="#EA384D" stroke-width="2.5" stroke-linecap="round" stroke-linejoin="round"/>
<path d="M33 17.5C33 29.4033 20.5 36.25 20.5 36.25C20.5 36.25 8 29.4033 8 17.5C8 14.1848 9.31696 11.0054 11.6612 8.66117C14.0054 6.31696 17.1848 5 20.5 5C23.8152 5 26.9946 6.31696 29.3388 8.66117C31.683 11.0054 33 14.1848 33 17.5V17.5Z" stroke="#EA384D" stroke-width="2.5" stroke-linecap="round" stroke-linejoin="round"/>
</svg>
