<svg width="24" height="38" viewBox="0 0 24 38" fill="none" xmlns="http://www.w3.org/2000/svg">
<path d="M9.5 1.5H5.75C4.75544 1.5 3.80161 1.89509 3.09835 2.59835C2.39509 3.30161 2 4.25544 2 5.25V32.75C2 33.7446 2.39509 34.6984 3.09835 35.4016C3.80161 36.1049 4.75544 36.5 5.75 36.5H18.25C19.2446 36.5 20.1984 36.1049 20.9016 35.4016C21.6049 34.6984 22 33.7446 22 32.75V5.25C22 4.25544 21.6049 3.30161 20.9016 2.59835C20.1984 1.89509 19.2446 1.5 18.25 1.5H14.5M9.5 1.5V4H14.5V1.5M9.5 1.5H14.5M9.5 32.75H14.5" stroke="#EA384D" stroke-width="2.5" stroke-linecap="round" stroke-linejoin="round"/>
</svg>
