<svg width="32" height="32" viewBox="0 0 32 32" fill="none" xmlns="http://www.w3.org/2000/svg">
<path d="M20.9871 11.1957C20.876 9.608 20.139 8.12943 18.938 7.08524C17.737 6.04106 16.1705 5.5168 14.5831 5.62781C12.9956 5.73881 11.5173 6.47598 10.4734 7.67715C9.42939 8.87831 8.90526 10.4451 9.01629 12.0328C9.50467 19.017 6.65151 21.2217 6.65151 21.2217L24.6077 19.9661C24.6077 19.9661 21.4754 18.1799 20.9871 11.1957Z" stroke="#1D976C" stroke-width="2" stroke-linecap="round" stroke-linejoin="round"/>
<path d="M17.6342 24.4642C17.48 24.7789 17.2458 25.0475 16.9551 25.2431C16.6644 25.4388 16.3274 25.5547 15.9779 25.5791C15.6284 25.6035 15.2786 25.5357 14.9635 25.3824C14.6484 25.2291 14.3791 24.9957 14.1826 24.7056" stroke="#1D976C" stroke-width="2" stroke-linecap="round" stroke-linejoin="round"/>
</svg>
