<svg width="32" height="32" viewBox="0 0 32 32" fill="none" xmlns="http://www.w3.org/2000/svg">
<path d="M22 12.0011C22 10.4095 21.3679 8.88308 20.2426 7.75767C19.1174 6.63225 17.5913 6 16 6C14.4087 6 12.8826 6.63225 11.7574 7.75767C10.6321 8.88308 10 10.4095 10 12.0011C10 19.0023 7 21.0026 7 21.0026H25C25 21.0026 22 19.0023 22 12.0011Z" stroke="#585858" stroke-width="2" stroke-linecap="round" stroke-linejoin="round"/>
<path d="M17.73 25.0034C17.5542 25.3065 17.3019 25.5582 16.9982 25.7331C16.6946 25.908 16.3504 26 16 26C15.6496 26 15.3054 25.908 15.0018 25.7331C14.6982 25.5582 14.4458 25.3065 14.27 25.0034" stroke="#585858" stroke-width="2" stroke-linecap="round" stroke-linejoin="round"/>
</svg>
