<svg width="32" height="32" viewBox="0 0 32 32" fill="none" xmlns="http://www.w3.org/2000/svg">
<path d="M24.125 25.268C24.2454 24.011 24.4921 20.0278 27.3736 17.0039C27.4777 16.8947 21.597 18.8574 20.875 25.268C20.1529 23.0055 23.4015 15.1187 27.012 12.4791C28.3347 11.5121 16.9025 14.3482 16.1806 24.9069" stroke="#585858" stroke-width="1.5" stroke-linecap="round"/>
<path d="M24.125 25.2679C24.2454 24.011 24.4921 20.0277 27.3736 17.0038C27.4777 16.8946 21.597 18.8573 20.875 25.2679C20.1529 23.0054 23.4015 15.1186 27.012 12.479C28.3347 11.512 16.9025 14.3482 16.1806 24.9068" stroke="#585858" stroke-width="1.5" stroke-linecap="round"/>
<path d="M7.875 25.2681C7.75465 24.0078 7.50794 20.0141 4.62636 16.9822C4.52231 16.8727 10.403 18.8407 11.125 25.2681C11.8471 22.9996 8.59666 14.9145 4.98611 12.268C3.66337 11.2985 15.0975 14.3196 15.8194 24.906" stroke="#585858" stroke-width="1.5" stroke-linecap="round"/>
<path d="M14.0137 18.7681C14.2544 14.4347 15.5791 7.91931 16.1803 6.85123C16.722 5.8889 17.6248 10.8235 17.9859 18.768" stroke="#585858" stroke-width="1.5" stroke-linecap="round"/>
<path d="M6.06934 25.268H27.3749" stroke="#585858" stroke-width="1.5" stroke-linecap="round"/>
<path d="M6.06934 25.2679H27.3749" stroke="#585858" stroke-width="1.5" stroke-linecap="round"/>
</svg>
